<?xml version="1.0" encoding="utf-8"?>
<!-- Generator: Adobe Illustrator 19.1.0, SVG Export Plug-In . SVG Version: 6.00 Build 0)  -->
<svg version="1.1" id="Layer_1" xmlns="http://www.w3.org/2000/svg" xmlns:xlink="http://www.w3.org/1999/xlink" x="0px" y="0px"
	 viewBox="0 0 235.6 88.9" style="enable-background:new 0 0 235.6 88.9;" xml:space="preserve">
<style type="text/css">
	.st0{fill:#F2F2F2;}
</style>
<g>
	<path class="st0" d="M24,18.3c-13.2,0-24,10.8-24,24c0,13.2,10.8,24,24,24c5,0,9.7-1.6,13.6-4.2v3.7H48V42.3
		C48,29.1,37.3,18.3,24,18.3 M24,55.9c-7.5,0-13.6-6.1-13.6-13.6c0-7.5,6.1-13.6,13.6-13.6c7.5,0,13.6,6.1,13.6,13.6
		C37.6,49.8,31.5,55.9,24,55.9"/>
	<path class="st0" d="M127.4,18.3c-13.2,0-24,10.8-24,24c0,13.2,10.8,24,24,24c5,0,9.7-1.6,13.6-4.2v3.7h10.4V42.3
		C151.5,29.1,140.7,18.3,127.4,18.3 M127.4,55.9c-7.5,0-13.6-6.1-13.6-13.6c0-7.5,6.1-13.6,13.6-13.6c7.5,0,13.6,6.1,13.6,13.6
		C141,49.8,134.9,55.9,127.4,55.9"/>
	<path class="st0" d="M89.3,22.5c-3.9-2.7-8.6-4.2-13.6-4.2c-13.2,0-24,10.8-24,24c0,13.2,10.8,24,24,24c13.2,0,24-10.8,24-24V0
		H89.3V22.5z M75.7,55.9c-7.5,0-13.6-6.1-13.6-13.6c0-7.5,6.1-13.6,13.6-13.6c7.5,0,13.6,6.1,13.6,13.6
		C89.3,49.8,83.2,55.9,75.7,55.9"/>
	<path class="st0" d="M179.2,18.3c-13.2,0-24,10.8-24,24v46.5h10.4V62.1c3.9,2.7,8.6,4.2,13.6,4.2c13.2,0,24-10.8,24-24
		C203.2,29.1,192.4,18.3,179.2,18.3 M179.2,55.9c-7.5,0-13.6-6.1-13.6-13.6c0-7.5,6.1-13.6,13.6-13.6c7.5,0,13.6,6.1,13.6,13.6
		C192.8,49.8,186.7,55.9,179.2,55.9"/>
	<path class="st0" d="M230.9,55.9c0,0-3.6-0.1-7.1-1.8c-4.4-2.2-6.5-6.1-6.5-11.8V28.7h8.9V18.3h-8.9V0h-10.4v42.3
		c0,9.7,4.4,17.2,12.3,21.1c5.6,2.8,11.1,2.9,11.7,2.9h4.7V55.9H230.9z"/>
</g>
</svg>
